<svg width="122" height="50" viewBox="0 0 122 50" fill="none" xmlns="http://www.w3.org/2000/svg">
<path d="M107.714 20.1106H100.514L96.5864 30.9785L92.6591 20.1106H85.4591L93.3546 38.4961L88.188 49.936H2.27273C1.01753 49.936 0 48.9198 0 47.6662V2.26982C0 1.01623 1.01753 0 2.27273 0H119.318C120.573 0 121.591 1.01623 121.591 2.26982V47.6662C121.591 48.9198 120.573 49.936 119.318 49.936H95.3787L107.714 20.1106ZM54.0409 23.7468V20.1106H47.4955V39.7218H54.0409V32.4902C54.0409 29.3034 55.7591 27.1788 57.6409 26.6477C58.8273 26.3208 60.0136 26.28 61.2409 26.6477V19.4569C57.5591 19.702 55.3909 20.9277 54.0409 23.7468ZM75.0682 34.6556C74.2909 34.6556 73.5136 34.533 73.0227 34.247L84.6409 27.3014C83.1273 20.8052 78.1364 19.4569 75.3136 19.4569C68.4818 19.4569 64.35 24.1145 64.35 29.9162C64.35 35.7179 68.4818 40.3755 75.3136 40.3755C78.4636 40.3755 81.1636 39.2315 83.3318 37.1478L79.9773 32.7762C78.7909 33.8793 77.0318 34.6556 75.0682 34.6556ZM75.3136 25.1768C76.3773 25.1768 77.1136 25.708 77.4409 26.2391L70.65 30.2839C70.2409 27.2197 72.5318 25.1768 75.3136 25.1768Z" fill="white"/>
</svg>
