<svg width="124" height="50" viewBox="0 0 124 50" fill="none" xmlns="http://www.w3.org/2000/svg">
<path d="M109.045 20.1364H101.756L97.7801 31.0182L93.8043 20.1364H86.5153L94.5083 38.5455L89.2779 50H2.30082C1.03011 50 0 48.9825 0 47.7273V2.27273C0 1.01753 1.03011 0 2.30082 0H120.793C122.064 0 123.094 1.01753 123.094 2.27273V47.7273C123.094 48.9825 122.064 50 120.793 50H96.5575L109.045 20.1364ZM54.7088 23.7773V20.1364H48.0825V39.7727H54.7088V32.5318C54.7088 29.3409 56.4482 27.2136 58.3533 26.6818C59.5543 26.3545 60.7554 26.3136 61.9978 26.6818V19.4818C58.2705 19.7273 56.0755 20.9545 54.7088 23.7773ZM75.996 34.7C75.2091 34.7 74.4222 34.5773 73.9252 34.2909L85.687 27.3364C84.1547 20.8318 79.1021 19.4818 76.2445 19.4818C69.3282 19.4818 65.1453 24.1455 65.1453 29.9545C65.1453 35.7636 69.3282 40.4273 76.2445 40.4273C79.4334 40.4273 82.1668 39.2818 84.3617 37.1955L80.9657 32.8182C79.7647 33.9227 77.9839 34.7 75.996 34.7ZM76.2445 25.2091C77.3212 25.2091 78.0667 25.7409 78.398 26.2727L71.5232 30.3227C71.109 27.2545 73.4283 25.2091 76.2445 25.2091Z" fill="#DA291C"/>
</svg>
